<?xml version="1.0" encoding="utf-8"?>
<svg xmlns="http://www.w3.org/2000/svg" style="margin: auto; background: none; display: block; shape-rendering: auto;" width="120" height="40" preserveAspectRatio="xMidYMid">
<style type="text/css">
  text {
    text-anchor: middle; font-size: 30px; opacity: 0;
  }
</style>
<g style="transform-origin:60px 20px;transform:scale(1)">
<g transform="translate(60,20)">
  <g transform="translate(0,0)"><g class="path" style="transform: matrix(0.01, 0, 0, 0.01, 0, 0); transform-origin: -46.995px -2.27287px; animation: 1s linear 0s 1 normal forwards running bounce-in-9663e14f-7c60-4e0b-8687-fb3ba005f20d;"><path d="M2.40-20.10L6.66-20.85L6.33-11.07L13.98-20.79L17.04-18.75L10.14-10.74L17.46-2.07L13.62 0.33L6.30-10.02L6.24-7.80L6.60 0L2.40 0L2.76-7.29L2.40-20.10" fill="#cc3363" stroke="none" stroke-width="none" transform="translate(-56.92498779296875,7.98712760925293)" style="fill: rgb(204, 51, 99);"></path></g><g class="path" style="transform: matrix(0.01, 0, 0, 0.01, 0, 0); transform-origin: -32.625px 0.307128px; animation: 1s linear 0.0825s 1 normal forwards running bounce-in-9663e14f-7c60-4e0b-8687-fb3ba005f20d;"><path d="M22.08 0L22.08 0Q20.31 0 19.18-1.13L19.18-1.13L19.18-1.13Q18.06-2.25 18.06-4.16L18.06-4.16L18.06-4.16Q18.06-6.06 19.80-7.46L19.80-7.46L19.80-7.46Q21.54-8.85 24.03-8.85L24.03-8.85L26.07-8.85L26.07-9.36L26.07-9.36Q26.07-10.83 25.47-11.37L25.47-11.37L25.47-11.37Q24.87-11.91 23.22-11.91L23.22-11.91L23.22-11.91Q22.53-11.91 21.59-11.63L21.59-11.63L21.59-11.63Q20.64-11.34 19.47-10.74L19.47-10.74L18.60-13.11L18.60-13.11Q19.89-14.01 21.73-14.73L21.73-14.73L21.73-14.73Q23.58-15.45 24.78-15.45L24.78-15.45L24.78-15.45Q29.49-15.45 29.49-10.89L29.49-10.89L29.49-5.01L29.49-5.01Q29.49-3.33 30.54-1.26L30.54-1.26L27.36 0.09L27.36 0.09Q26.61-1.35 26.25-2.49L26.25-2.49L26.25-2.49Q24.60 0 22.08 0L22.08 0zM23.34-3.06L23.34-3.06L23.34-3.06Q24.54-3.06 26.07-4.29L26.07-4.29L26.07-6.30L26.07-6.30Q24.48-6.66 23.49-6.66L23.49-6.66L23.49-6.66Q21.60-6.66 21.60-4.98L21.60-4.98L21.60-4.98Q21.60-4.11 22.08-3.58L22.08-3.58L22.08-3.58Q22.56-3.06 23.34-3.06" fill="#cc3363" stroke="none" stroke-width="none" transform="translate(-56.92498779296875,7.98712760925293)" style="fill: rgb(204, 51, 99);"></path></g><g class="path" style="transform: matrix(0.01, 0, 0, 0.01, 0, 0); transform-origin: -21.78px 0.352128px; animation: 1s linear 0.165s 1 normal forwards running bounce-in-9663e14f-7c60-4e0b-8687-fb3ba005f20d;"><path d="M33.15-14.52L37.17-15.27L36.81-7.80L37.14-0.75L33.12 0L33.48-7.29L33.15-14.52" fill="#cc3363" stroke="none" stroke-width="none" transform="translate(-56.92498779296875,7.98712760925293)" style="fill: rgb(204, 51, 99);"></path></g><g class="path" style="transform: matrix(0.01, 0, 0, 0.01, 0, 0); transform-origin: -21.645px -11.8129px; animation: 1s linear 0.2475s 1 normal forwards running bounce-in-9663e14f-7c60-4e0b-8687-fb3ba005f20d;"><path d="M32.94-19.66L32.94-19.66L32.94-19.66Q32.94-20.67 33.72-21.46L33.72-21.46L33.72-21.46Q34.50-22.26 35.52-22.26L35.52-22.26L35.52-22.26Q36.54-22.26 37.08-21.70L37.08-21.70L37.08-21.70Q37.62-21.15 37.62-20.04L37.62-20.04L37.62-20.04Q37.62-18.93 36.85-18.13L36.85-18.13L36.85-18.13Q36.09-17.34 35.09-17.34L35.09-17.34L35.09-17.34Q34.08-17.34 33.51-18L33.51-18L33.51-18Q32.94-18.66 32.94-19.66" fill="#cc3363" stroke="none" stroke-width="none" transform="translate(-56.92498779296875,7.98712760925293)" style="fill: rgb(204, 51, 99);"></path></g><g class="path" style="transform: matrix(0.01, 0, 0, 0.01, 0, 0); transform-origin: 0.300011px -2.37787px; animation: 1s linear 0.33s 1 normal forwards running bounce-in-9663e14f-7c60-4e0b-8687-fb3ba005f20d;"><path d="M61.29-9.30L62.58-3.75L62.91-3.75L64.32-8.91L67.20-20.88L70.59-20.34L67.32-8.43L65.31-0.24L59.82 0.15L58.11-7.86L57.09-11.82L56.19-8.43L54.18-0.24L48.78 0.15L46.98-7.86L43.86-20.13L47.76-20.88L50.19-9.30L51.54-3.75L51.87-3.75L53.46-9.30L55.65-17.40L54.96-20.13L58.92-20.88L61.29-9.30" fill="#cc3363" stroke="none" stroke-width="none" transform="translate(-56.92498779296875,7.98712760925293)" style="fill: rgb(204, 51, 99);"></path></g><g class="path" style="transform: matrix(0.01, 0, 0, 0.01, 0, 0); transform-origin: 21.135px 0.307128px; animation: 1s linear 0.4125s 1 normal forwards running bounce-in-9663e14f-7c60-4e0b-8687-fb3ba005f20d;"><path d="M75.84 0L75.84 0Q74.07 0 72.94-1.13L72.94-1.13L72.94-1.13Q71.82-2.25 71.82-4.16L71.82-4.16L71.82-4.16Q71.82-6.06 73.56-7.46L73.56-7.46L73.56-7.46Q75.30-8.85 77.79-8.85L77.79-8.85L79.83-8.85L79.83-9.36L79.83-9.36Q79.83-10.83 79.23-11.37L79.23-11.37L79.23-11.37Q78.63-11.91 76.98-11.91L76.98-11.91L76.98-11.91Q76.29-11.91 75.34-11.63L75.34-11.63L75.34-11.63Q74.40-11.34 73.23-10.74L73.23-10.74L72.36-13.11L72.36-13.11Q73.65-14.01 75.49-14.73L75.49-14.73L75.49-14.73Q77.34-15.45 78.54-15.45L78.54-15.45L78.54-15.45Q83.25-15.45 83.25-10.89L83.25-10.89L83.25-5.01L83.25-5.01Q83.25-3.33 84.30-1.26L84.30-1.26L81.12 0.09L81.12 0.09Q80.37-1.35 80.01-2.49L80.01-2.49L80.01-2.49Q78.36 0 75.84 0L75.84 0zM77.10-3.06L77.10-3.06L77.10-3.06Q78.30-3.06 79.83-4.29L79.83-4.29L79.83-6.30L79.83-6.30Q78.24-6.66 77.25-6.66L77.25-6.66L77.25-6.66Q75.36-6.66 75.36-4.98L75.36-4.98L75.36-4.98Q75.36-4.11 75.84-3.58L75.84-3.58L75.84-3.58Q76.32-3.06 77.10-3.06" fill="#cc3363" stroke="none" stroke-width="none" transform="translate(-56.92498779296875,7.98712760925293)" style="fill: rgb(204, 51, 99);"></path></g><g class="path" style="transform: matrix(0.01, 0, 0, 0.01, 0, 0); transform-origin: 36.015px 0.427127px; animation: 1s linear 0.495s 1 normal forwards running bounce-in-9663e14f-7c60-4e0b-8687-fb3ba005f20d;"><path d="M95.61-7.59L95.61-7.59Q95.61-9.66 95.25-10.35L95.25-10.35L95.25-10.35Q94.89-11.04 93.57-11.04L93.57-11.04L93.57-11.04Q92.25-11.04 90.57-9.99L90.57-9.99L90.57-7.80L90.90-0.75L86.88 0L87.24-7.29L87.24-7.29Q87.12-11.31 86.58-14.49L86.58-14.49L90.21-15.27L90.21-15.27Q90.42-13.53 90.51-11.88L90.51-11.88L90.51-11.88Q90.96-12.48 91.53-13.06L91.53-13.06L91.53-13.06Q92.10-13.65 93.33-14.38L93.33-14.38L93.33-14.38Q94.56-15.12 95.92-15.12L95.92-15.12L95.92-15.12Q97.29-15.12 98.22-14.05L98.22-14.05L98.22-14.05Q99.15-12.99 99.15-11.16L99.15-11.16L98.97-7.80L99.30-0.60L95.25 0.15L95.61-7.59" fill="#cc3363" stroke="none" stroke-width="none" transform="translate(-56.92498779296875,7.98712760925293)" style="fill: rgb(204, 51, 99);"></path></g><g class="path" style="transform: matrix(0.01, 0, 0, 0.01, 0, 0); transform-origin: 51.975px 3.56213px; animation: 1s linear 0.5775s 1 normal forwards running bounce-in-9663e14f-7c60-4e0b-8687-fb3ba005f20d;"><path d="M101.55 2.97L101.55 2.97L101.55 2.97Q101.55 0.33 106.47-1.17L106.47-1.17L106.47-1.17Q105.30-1.77 105.30-2.73L105.30-2.73L105.30-2.73Q105.30-3.12 105.60-3.51L105.60-3.51L105.60-3.51Q105.90-3.90 106.47-4.32L106.47-4.32L106.47-4.56L106.47-4.56Q104.31-4.56 103.03-5.76L103.03-5.76L103.03-5.76Q101.76-6.96 101.76-8.97L101.76-8.97L101.76-8.97Q101.76-11.58 103.89-13.51L103.89-13.51L103.89-13.51Q106.02-15.45 108.93-15.45L108.93-15.45L108.93-15.45Q109.68-15.45 111.12-15.15L111.12-15.15L111.12-15.15Q112.56-14.85 113.94-14.85L113.94-14.85L116.25-14.85L115.95-12.24L113.70-12.51L113.70-12.51Q114.00-11.64 114.00-10.53L114.00-10.53L114.00-10.53Q114.00-9.42 113.47-8.32L113.47-8.32L113.47-8.32Q112.95-7.23 112.21-6.57L112.21-6.57L112.21-6.57Q111.48-5.91 110.74-5.42L110.74-5.42L110.74-5.42Q110.01-4.92 109.48-4.54L109.48-4.54L109.48-4.54Q108.96-4.17 108.96-3.87L108.96-3.87L108.96-3.87Q108.96-3.30 110.16-2.88L110.16-2.88L110.16-2.88Q113.34-1.59 114.46-0.69L114.46-0.69L114.46-0.69Q115.59 0.21 115.59 1.53L115.59 1.53L115.59 1.53Q115.59 3.75 113.35 5.17L113.35 5.17L113.35 5.17Q111.12 6.60 108.03 6.60L108.03 6.60L108.03 6.60Q104.94 6.60 103.24 5.61L103.24 5.61L103.24 5.61Q101.55 4.62 101.55 2.97zM110.61-9.63L110.61-9.63L110.61-9.63Q110.61-11.10 109.95-11.79L109.95-11.79L109.95-11.79Q109.29-12.48 107.88-12.48L107.88-12.48L107.88-12.48Q105.15-12.48 105.15-9.79L105.15-9.79L105.15-9.79Q105.15-7.11 108.06-7.11L108.06-7.11L108.06-7.11Q110.61-7.11 110.61-9.63zM111.69 1.98L111.69 1.98L111.69 1.98Q111.69 1.44 111.12 0.97L111.12 0.97L111.12 0.97Q110.55 0.51 109.08-0.12L109.08-0.12L109.08-0.12Q106.89 0.48 106.06 0.99L106.06 0.99L106.06 0.99Q105.24 1.50 105.24 2.25L105.24 2.25L105.24 2.25Q105.24 3 106.06 3.46L106.06 3.46L106.06 3.46Q106.89 3.93 108.36 3.93L108.36 3.93L108.36 3.93Q109.83 3.93 110.76 3.39L110.76 3.39L110.76 3.39Q111.69 2.85 111.69 1.98" fill="#cc3363" stroke="none" stroke-width="none" transform="translate(-56.92498779296875,7.98712760925293)" style="fill: rgb(204, 51, 99);"></path></g></g>
</g>
</g>
<style id="bounce-in-9663e14f-7c60-4e0b-8687-fb3ba005f20d" data-anikit="">@keyframes bounce-in-9663e14f-7c60-4e0b-8687-fb3ba005f20d
{
  0% {
    animation-timing-function: cubic-bezier(0.0383,0.3388,0.0421,0.6652);
    transform: matrix(0.01,0,0,0.01,0,0);
    opacity: 1;
  }
  4.7% {
    animation-timing-function: cubic-bezier(0.3296,0.3336,0.5772,0.6672);
    transform: matrix(0.556,0,0,0.556,0,0);
    opacity: 1;
  }
  8.4% {
    animation-timing-function: cubic-bezier(0.0781,0.1617,0.0874,0.9301);
    transform: matrix(0.979,0,0,0.979,0,0);
    opacity: 1;
  }
  12.4% {
    animation-timing-function: cubic-bezier(0.8341,0.1496,0.8634,0.7673);
    transform: matrix(1.153,0,0,1.153,0,0);
    opacity: 1;
  }
  16.3% {
    animation-timing-function: cubic-bezier(0.3264,0.3332,0.5758,0.6695);
    transform: matrix(1.008,0,0,1.008,0,0);
    opacity: 1;
  }
  21.2% {
    animation-timing-function: cubic-bezier(0.0921,0.1883,0.3277,1);
    transform: matrix(0.704,0,0,0.704,0,0);
    opacity: 1;
  }
  24.5% {
    animation-timing-function: cubic-bezier(0.6905,0.0944,0.8759,0.7624);
    transform: matrix(0.626,0,0,0.626,0,0);
    opacity: 1;
  }
  27.7% {
    animation-timing-function: cubic-bezier(0.3688,0.332,0.624,0.6684);
    transform: matrix(0.704,0,0,0.704,0,0);
    opacity: 1;
  }
  32.6% {
    animation-timing-function: cubic-bezier(0.1368,0.2364,0.2451,0.9049);
    transform: matrix(0.958,0,0,0.958,0,0);
    opacity: 1;
  }
  37.4% {
    animation-timing-function: cubic-bezier(0.5936,0.0846,0.3495,1);
    transform: matrix(1.085,0,0,1.085,0,0);
    opacity: 1;
  }
  49.5% {
    animation-timing-function: cubic-bezier(0.5522,0.0981,0.3807,1);
    transform: matrix(0.802,0,0,0.802,0,0);
    opacity: 1;
  }
  62.4% {
    animation-timing-function: cubic-bezier(0.4497,0.1349,0.4911,1);
    transform: matrix(1.044,0,0,1.044,0,0);
    opacity: 1;
  }
  74.1% {
    animation-timing-function: cubic-bezier(0.429,0,0.5239,1);
    transform: matrix(0.914,0,0,0.914,0,0);
    opacity: 1;
  }
  87% {
    animation-timing-function: cubic-bezier(0.3501,0,0.6422,1);
    transform: matrix(1.013,0,0,1.013,0,0);
    opacity: 1;
  }
  95.8% {
    animation-timing-function: cubic-bezier(0.3653,0,0.6776,1);
    transform: matrix(0.992,0,0,0.992,0,0);
    opacity: 1;
  }
  100% {
    transform: matrix(1,0,0,1,0,0);
    opacity: 1;
  }
}</style></svg>